<svg width="60" height="60" viewBox="0 0 60 60" fill="none" xmlns="http://www.w3.org/2000/svg">
<rect width="60" height="60" fill="#C4C4C4"/>
<rect width="60" height="60" fill="#72E384"/>
<path d="M21.964 23.19C21.28 21.8727 20.33 20.8847 19.114 20.226C17.898 19.542 16.492 19.2 14.896 19.2C13.148 19.2 11.59 19.5927 10.222 20.378C8.854 21.1633 7.77733 22.278 6.992 23.722C6.232 25.166 5.852 26.838 5.852 28.738C5.852 30.638 6.232 32.3227 6.992 33.792C7.77733 35.236 8.854 36.3507 10.222 37.136C11.59 37.9213 13.148 38.314 14.896 38.314C17.252 38.314 19.1647 37.6553 20.634 36.338C22.1033 35.0207 23.0027 33.2347 23.332 30.98H13.414V27.522H27.968V30.904C27.6893 32.956 26.9547 34.8433 25.764 36.566C24.5987 38.2887 23.066 39.6693 21.166 40.708C19.2913 41.7213 17.2013 42.228 14.896 42.228C12.4133 42.228 10.146 41.658 8.094 40.518C6.042 39.3527 4.408 37.744 3.192 35.692C2.00133 33.64 1.406 31.322 1.406 28.738C1.406 26.154 2.00133 23.836 3.192 21.784C4.408 19.732 6.042 18.136 8.094 16.996C10.1713 15.8307 12.4387 15.248 14.896 15.248C17.708 15.248 20.2033 15.9447 22.382 17.338C24.586 18.706 26.182 20.6567 27.17 23.19H21.964ZM44.2866 42.266C41.8293 42.266 39.562 41.696 37.4846 40.556C35.4326 39.3907 33.7986 37.782 32.5826 35.73C31.392 33.6527 30.7966 31.322 30.7966 28.738C30.7966 26.154 31.392 23.836 32.5826 21.784C33.7986 19.732 35.4326 18.136 37.4846 16.996C39.562 15.8307 41.8293 15.248 44.2866 15.248C46.7693 15.248 49.0366 15.8307 51.0886 16.996C53.166 18.136 54.8 19.732 55.9906 21.784C57.1813 23.836 57.7766 26.154 57.7766 28.738C57.7766 31.322 57.1813 33.6527 55.9906 35.73C54.8 37.782 53.166 39.3907 51.0886 40.556C49.0366 41.696 46.7693 42.266 44.2866 42.266ZM44.2866 38.504C46.0346 38.504 47.5926 38.1113 48.9606 37.326C50.3286 36.5153 51.3926 35.3753 52.1526 33.906C52.938 32.4113 53.3306 30.6887 53.3306 28.738C53.3306 26.7873 52.938 25.0773 52.1526 23.608C51.3926 22.1387 50.3286 21.0113 48.9606 20.226C47.5926 19.4407 46.0346 19.048 44.2866 19.048C42.5386 19.048 40.9806 19.4407 39.6126 20.226C38.2446 21.0113 37.168 22.1387 36.3826 23.608C35.6226 25.0773 35.2426 26.7873 35.2426 28.738C35.2426 30.6887 35.6226 32.4113 36.3826 33.906C37.168 35.3753 38.2446 36.5153 39.6126 37.326C40.9806 38.1113 42.5386 38.504 44.2866 38.504Z" fill="#28342B"/>
<rect x="4" y="45" width="52" height="3" fill="#28342B"/>
</svg>
